<svg width="320" height="230" viewBox="0 0 320 230" fill="none" xmlns="http://www.w3.org/2000/svg">
<rect x="-46" y="9.30908" width="62" height="57" rx="20" transform="rotate(-32.4963 -46 9.30908)" fill="#F07F23"/>
<rect x="77" y="103" width="20" height="21" rx="10" stroke="#340E9C" stroke-width="4"/>
<rect x="20.3561" y="-23.9979" width="60" height="55" rx="19" transform="rotate(-28.5179 20.3561 -23.9979)" stroke="#98CBFF" stroke-width="2"/>
<path d="M187.282 170.34C181.724 148.34 194.888 125.905 216.881 120.071L227.513 117.251C249.505 111.418 272.059 124.379 278.135 146.242L187.282 170.34Z" stroke="#67728A"/>
<path d="M70.8673 180.01C67.9646 169.067 74.4829 157.842 85.4263 154.939L136.655 141.351C147.598 138.448 158.823 144.967 161.725 155.91C164.628 166.854 158.11 178.078 147.166 180.981L95.9379 194.569C84.9945 197.472 73.77 190.953 70.8673 180.01Z" stroke="#67728A"/>
<path d="M88.1241 228.369C85.2214 217.426 91.7397 206.201 102.683 203.298L262.168 160.996C273.112 158.093 284.336 164.611 287.239 175.554C290.141 186.498 283.623 197.722 272.68 200.625L113.195 242.928C102.251 245.831 91.0269 239.313 88.1241 228.369Z" stroke="#67728A"/>
<rect x="274.36" y="247.977" width="61" height="56" rx="19.5" transform="rotate(-80.4873 274.36 247.977)" stroke="#F07F23"/>
<rect x="304.952" y="122.037" width="61" height="56" rx="19.5" transform="rotate(-80.4873 304.952 122.037)" stroke="#F07F23"/>
<rect x="289.126" y="182.566" width="60" height="55" rx="19" transform="rotate(-76.5089 289.126 182.566)" stroke="#98CBFF" stroke-width="2"/>
<path d="M18.2886 210.295C14.0356 197.779 19.7408 182.058 31.0314 175.183C42.3221 168.307 54.9227 172.88 59.1757 185.397L71.6997 222.255C74.4977 230.49 70.7443 240.832 63.3163 245.355L49.3285 253.873C41.9005 258.397 33.6106 255.388 30.8126 247.154L18.2886 210.295Z" stroke="#67728A"/>
</svg>
