<svg width="114" height="156" viewBox="0 0 114 156" fill="none" xmlns="http://www.w3.org/2000/svg">
<g clip-path="url(#clip0_122_705)">
<path d="M100.908 155.748H51.2755C44.0562 155.748 38.1836 149.877 38.1836 142.66V13.088C38.1836 5.87084 44.0562 0 51.2755 0H100.908C108.128 0 114 5.87084 114 13.088V142.66C114 149.877 108.128 155.748 100.908 155.748Z" fill="#DADBDC"/>
<path d="M100.944 152.205H51.2395C45.8964 152.205 41.5479 147.858 41.5479 142.516V12.9775C41.5479 7.63595 45.8964 3.2887 51.2395 3.2887H100.944C106.288 3.2887 110.636 7.63595 110.636 12.9775V142.516C110.636 147.858 106.288 152.205 100.944 152.205Z" fill="white"/>
<path d="M83.121 11.9112H69.0654C67.2098 11.9112 65.7012 10.4031 65.7012 8.54802C65.7012 6.69299 67.2098 5.18481 69.0654 5.18481H83.121C84.9766 5.18481 86.4852 6.69299 86.4852 8.54802C86.4852 10.4031 84.9766 11.9112 83.121 11.9112Z" fill="#DADBDC"/>
<path d="M97.4638 51.4682H56.3352C55.5205 51.4682 54.8574 50.6255 54.8574 49.5926C54.8574 48.5598 55.5205 47.717 56.3352 47.717H97.4638C98.2785 47.717 98.9416 48.5598 98.9416 49.5926C98.9416 50.6255 98.2785 51.4682 97.4638 51.4682Z" fill="#DADBDC"/>
<path d="M97.4638 59.7799H56.3352C55.5205 59.7799 54.8574 58.9371 54.8574 57.9043C54.8574 56.8714 55.5205 56.0287 56.3352 56.0287H97.4638C98.2785 56.0287 98.9416 56.8714 98.9416 57.9043C98.9416 58.9371 98.2785 59.7799 97.4638 59.7799Z" fill="#DADBDC"/>
<path d="M85.6698 68.0915H56.3352C55.5205 68.0915 54.8574 67.2488 54.8574 66.2159C54.8574 65.1831 55.5205 64.3403 56.3352 64.3403H85.6698C86.4845 64.3403 87.1476 65.1831 87.1476 66.2159C87.1476 67.2488 86.4845 68.0915 85.6698 68.0915Z" fill="#DADBDC"/>
<path d="M76.0912 116.96C85.7872 116.96 93.6473 109.102 93.6473 99.4087C93.6473 89.7156 85.7872 81.8578 76.0912 81.8578C66.3953 81.8578 58.5352 89.7156 58.5352 99.4087C58.5352 109.102 66.3953 116.96 76.0912 116.96Z" fill="#FD9354"/>
<path d="M71.4217 99.7735C72.3289 101.549 73.2361 103.327 74.1434 105.102C74.403 105.614 75.1663 105.452 75.3179 104.948C76.5078 100.981 78.7181 97.3661 81.6968 94.4911C82.293 93.9155 81.3832 93.0086 80.787 93.5815C77.6515 96.6082 75.3307 100.434 74.0766 104.606L75.2511 104.452C74.3438 102.677 73.4366 100.899 72.5294 99.1235C72.1542 98.3861 71.0439 99.0362 71.4191 99.771H71.4217V99.7735Z" fill="white"/>
<path d="M28.7642 78.1786L24.5082 79.6302L24.4414 73.487L28.3145 73.4434L28.7642 78.1786Z" fill="#F3A3A6"/>
<path d="M24.9396 75.1827C27.2901 75.1827 29.1956 73.2778 29.1956 70.928C29.1956 68.5781 27.2901 66.6732 24.9396 66.6732C22.5891 66.6732 20.6836 68.5781 20.6836 70.928C20.6836 73.2778 22.5891 75.1827 24.9396 75.1827Z" fill="#F3A3A6"/>
<path d="M26.1041 70.4939C25.3922 70.481 24.9167 69.7667 24.6315 69.1116C24.3462 68.459 24.0532 67.7062 23.3927 67.4415C22.8504 67.2257 21.9149 68.7339 21.4831 68.3408C21.0334 67.9297 21.4446 65.7869 21.9123 65.3989C22.3801 65.011 23.0252 64.9288 23.6317 64.8928C25.1146 64.808 26.6053 64.9108 28.0625 65.1985C28.962 65.3758 29.8924 65.6482 30.5477 66.2905C31.3779 67.105 31.6015 68.3459 31.6734 69.5072C31.7479 70.6943 31.6914 71.9404 31.126 72.9886C30.558 74.0343 29.3578 74.8154 28.1936 74.5636C28.0702 73.9341 28.1807 73.2867 28.2193 72.6444C28.2578 72.0046 28.2013 71.3135 27.8055 70.8073C27.4097 70.3012 26.5719 70.1085 26.1221 70.5658" fill="#2F2E43"/>
<path d="M31.355 71.9095C31.7765 71.5934 32.2828 71.3262 32.8071 71.3853C33.3751 71.447 33.8583 71.9095 34.0099 72.4593C34.1615 73.0091 34.0047 73.618 33.6604 74.0728C33.316 74.5276 32.7994 74.8308 32.2494 74.9849C31.9307 75.0748 31.5838 75.1134 31.2779 74.9849C30.8282 74.7973 30.5814 74.2295 30.7511 73.7722" fill="#2F2E43"/>
<path d="M15.5183 112.106C15.251 113.506 15.783 114.778 16.7108 114.945C17.636 115.112 18.6049 114.11 18.8722 112.71C18.9878 112.152 18.9621 111.574 18.7977 111.027L22.0719 89.0827L17.6617 88.3042L16.2096 110.562C15.8549 111.017 15.6159 111.546 15.5183 112.109V112.106Z" fill="#F3A3A6"/>
<path d="M24.4309 76.8116L21.4265 76.845C19.3062 77.1893 18.7408 78.3301 18.2833 80.4266C17.5817 83.6254 16.6873 87.8879 16.8749 87.947C17.1756 88.0446 22.3157 90.393 24.9166 89.8123L24.4309 76.8116Z" fill="white"/>
<path d="M28.1208 146.555L24.1221 146.6L24.1854 152.27L28.1842 152.226L28.1208 146.555Z" fill="#F3A3A6"/>
<path d="M20.3191 155.748C19.8977 155.753 19.525 155.748 19.2423 155.725C18.1783 155.64 17.158 154.867 16.6414 154.415C16.4101 154.212 16.333 153.883 16.4486 153.6C16.5309 153.397 16.7005 153.243 16.9113 153.179L19.71 152.346L24.2205 149.23L24.2719 149.32C24.2925 149.353 24.7474 150.152 24.9016 150.694C24.9607 150.9 24.9478 151.072 24.863 151.206C24.8039 151.298 24.7217 151.352 24.6548 151.386C24.7371 151.47 24.9966 151.642 25.7934 151.761C26.9525 151.933 27.1863 150.728 27.194 150.676L27.2018 150.635L27.2352 150.612C27.7826 150.25 28.1193 150.085 28.2375 150.119C28.312 150.139 28.4328 150.175 28.7978 153.443C28.8312 153.546 29.0702 154.297 28.9211 155.018C28.7592 155.805 25.3333 155.571 24.6497 155.517C24.6291 155.519 22.0694 155.73 20.314 155.748H20.3191Z" fill="#2F2E43"/>
<path d="M39.4572 141.964L36.0879 144.118L39.143 148.895L42.5124 146.742L39.4572 141.964Z" fill="#F3A3A6"/>
<path d="M35.0837 154.805C34.6134 154.81 34.1816 154.759 33.8732 154.708C33.57 154.656 33.331 154.42 33.2796 154.117C33.241 153.898 33.3053 153.68 33.4492 153.516L35.3819 151.329L37.5587 146.298L37.6512 146.347C37.6846 146.365 38.4942 146.802 38.9131 147.18C39.0725 147.324 39.1521 147.475 39.1521 147.634C39.1521 147.745 39.111 147.835 39.0699 147.896C39.1855 147.925 39.4965 147.932 40.2341 147.611C41.3084 147.144 40.8689 145.998 40.8484 145.952L40.833 145.913L40.8509 145.877C41.1234 145.281 41.3238 144.962 41.4395 144.926C41.514 144.906 41.6348 144.87 43.6754 147.449C43.7577 147.519 44.3591 148.028 44.6135 148.719C44.8911 149.471 41.8635 151.085 41.2519 151.401C41.2339 151.416 38.0701 153.767 36.7697 154.44C36.2531 154.708 35.6389 154.795 35.0786 154.8L35.0837 154.805Z" fill="#2F2E43"/>
<path d="M30.5293 99.0927L19.3341 99.216L18.4346 109.637L23.3074 148.058L29.0232 147.994L26.4917 125.801L35.9855 145.759L41.0254 142.146L33.5773 123.498C33.5773 123.498 35.9829 107.155 33.9063 103.114C31.8297 99.0721 30.5318 99.0875 30.5318 99.0875V99.0927H30.5293Z" fill="#2F2E43"/>
<path d="M36.1039 99.6656L18.3242 99.8634L23.4026 76.8245L31.1514 76.7372L36.1039 99.6656Z" fill="white"/>
<path d="M37.8415 111.859C38.1396 113.255 37.6358 114.537 36.7132 114.724C35.7905 114.912 34.8011 113.933 34.5029 112.538C34.3744 111.983 34.3873 111.405 34.5389 110.852L30.7764 88.985L35.1686 88.1089L37.1141 110.331C37.4791 110.778 37.7284 111.302 37.8415 111.862V111.859Z" fill="#F3A3A6"/>
<path d="M28.1475 76.7706L31.1519 76.7372C33.2799 77.0352 33.8684 78.1631 34.3747 80.2494C35.1457 83.4328 36.1352 87.6721 35.9502 87.7363C35.6495 87.8391 30.5659 90.3005 27.9521 89.7789L28.15 76.7706H28.1475Z" fill="white"/>
<path d="M55.2768 155.748C55.2768 155.887 55.1637 156 55.0249 156H0.251866C0.113082 156 0 155.887 0 155.748C0 155.61 0.113082 155.496 0.251866 155.496H55.0249C55.1637 155.496 55.2768 155.61 55.2768 155.748Z" fill="#3F3D58"/>
</g>
<defs>
<clipPath id="clip0_122_705">
<rect width="114" height="156" fill="white"/>
</clipPath>
</defs>
</svg>
