<svg width="311" height="146" viewBox="0 0 311 146" fill="none" xmlns="http://www.w3.org/2000/svg">
<g clip-path="url(#clip0_58_363)">
<path d="M62.4288 103.54C61.5123 103.541 60.6337 103.905 59.9857 104.551C59.3377 105.198 58.9732 106.075 58.9722 106.99V115.061C58.9732 115.976 59.3377 116.853 59.9857 117.5C60.6337 118.147 61.5123 118.51 62.4288 118.512H66.8131C67.7295 118.51 68.6081 118.147 69.2561 117.5C69.9042 116.853 70.2687 115.976 70.2697 115.061V106.99C70.2687 106.075 69.9042 105.198 69.2561 104.551C68.6081 103.905 67.7295 103.541 66.8131 103.54H62.4288Z" fill="#3F3D56"/>
<path d="M143.475 118.78H139.09C138.103 118.779 137.156 118.387 136.457 117.69C135.759 116.993 135.366 116.047 135.365 115.061V106.99C135.366 106.004 135.759 105.059 136.457 104.362C137.156 103.665 138.103 103.272 139.09 103.271H143.475C144.462 103.272 145.409 103.665 146.108 104.362C146.806 105.059 147.199 106.004 147.2 106.99V115.061C147.199 116.047 146.806 116.993 146.108 117.69C145.409 118.387 144.462 118.779 143.475 118.78Z" fill="#3F3D56"/>
<path d="M140.565 112.317H65.0686C61.6327 112.317 58.8374 110.296 58.8374 107.811V93.3207L62.5847 89.3817H143.778L146.797 93.3289V107.811C146.797 110.296 144.001 112.317 140.565 112.317Z" fill="#CCCCCC"/>
<path d="M143.426 96.6306H63.0154L62.1982 84.1244L62.7182 82.8447L65.7408 75.4208H140.156L144.243 83.8511L143.426 96.6306Z" fill="#CCCCCC"/>
<path d="M144.107 83.878L143.507 93.2746H125.815V86.2941L143.604 82.8416L144.107 83.878Z" fill="white"/>
<path d="M80.357 86.2941V93.2746H62.9317L62.3345 84.1463L62.843 82.8953L80.357 86.2941Z" fill="white"/>
<path d="M139.708 77.5686H66.1885L74.0299 51.4803C74.3497 50.4029 75.0083 49.4567 75.9084 48.7816C76.8084 48.1065 77.9022 47.7384 79.0281 47.7316L127.717 47.2687C128.894 47.2573 130.04 47.6392 130.974 48.3535C131.908 49.0679 132.575 50.0736 132.87 51.2104L139.708 77.5686Z" fill="#CCCCCC"/>
<path d="M134.048 75.1018L71.8361 74.3655C71.7574 74.3646 71.6801 74.3453 71.6103 74.3091C71.5405 74.2729 71.4802 74.2208 71.4342 74.1571C71.3882 74.0934 71.3579 74.0199 71.3455 73.9423C71.3332 73.8648 71.3393 73.7854 71.3633 73.7107L77.3273 55.1383C77.3599 55.037 77.4237 54.9487 77.5098 54.8861C77.5958 54.8234 77.6996 54.7897 77.8061 54.7897H127.845C127.951 54.7897 128.055 54.8234 128.141 54.886C128.227 54.9486 128.291 55.0369 128.323 55.1381L134.533 74.4468C134.557 74.5225 134.563 74.6029 134.55 74.6814C134.537 74.7599 134.506 74.8342 134.459 74.8981C134.411 74.9621 134.349 75.014 134.278 75.0494C134.207 75.0848 134.128 75.1028 134.048 75.1018Z" fill="white"/>
<path d="M111.333 50.4522H94.5641C94.4228 50.4522 94.2946 50.3134 94.2296 50.0898C94.1648 49.8608 94.1741 49.6173 94.2563 49.3939L95.6391 45.9037C95.7096 45.7258 95.8247 45.6196 95.9469 45.6196H109.95C110.072 45.6196 110.187 45.7258 110.258 45.9037L111.64 49.3939C111.723 49.6173 111.732 49.8608 111.667 50.0898C111.602 50.3134 111.474 50.4522 111.333 50.4522Z" fill="#421B73"/>
<path d="M66.2346 77.0317H55.2061V74.6122C55.2069 73.8301 55.5186 73.0802 56.0727 72.5272C56.6269 71.9741 57.3781 71.663 58.1618 71.6621H66.2346V77.0317Z" fill="#CCCCCC"/>
<path d="M150.697 77.0317H139.668V71.6621H147.741C148.525 71.663 149.276 71.9741 149.83 72.5272C150.384 73.0802 150.696 73.8301 150.697 74.6122V77.0317Z" fill="#CCCCCC"/>
<path d="M53.9161 114.748L0.000488281 134.079L0.229364 134.715L54.145 115.384L53.9161 114.748Z" fill="#3F3D56"/>
<path d="M151.648 114.749L151.419 115.385L205.336 134.712L205.565 134.076L151.648 114.749Z" fill="#3F3D56"/>
<path d="M105.947 128.766H102.72V124.606H105.947V128.766ZM105.947 120.445H102.72V116.284H105.947V120.445Z" fill="#E6E6E6"/>
<path d="M105.947 146H102.72V141.84H105.947V146ZM105.947 137.679H102.72V133.519H105.947V137.679Z" fill="#E6E6E6"/>
<path d="M247.748 131.628H244.193L242.502 117.945H247.748V131.628Z" fill="#FFB8B8"/>
<path d="M248.655 135.067H237.194V134.922C237.195 133.742 237.666 132.61 238.502 131.776C239.338 130.941 240.472 130.471 241.655 130.47H248.655L248.655 135.067Z" fill="#2F2E41"/>
<path d="M293.583 124.906L290.536 126.733L282.025 115.873L286.522 113.177L293.583 124.906Z" fill="#FFB8B8"/>
<path d="M286.31 133.279L286.236 133.155C285.628 132.142 285.447 130.93 285.733 129.785C286.019 128.64 286.749 127.654 287.762 127.045L293.762 123.447L296.134 127.388L286.31 133.279Z" fill="#2F2E41"/>
<path d="M248.672 128.805L248.611 128.804C246.882 128.799 245.154 128.7 243.436 128.507C242.781 128.442 242.07 128.372 241.214 128.302L241.185 128.297C240.601 128.123 240.585 122.657 240.832 103.944C240.959 94.3596 241.103 83.4966 240.932 76.5784L240.93 76.5105L240.982 76.4657C247.322 70.9615 255.465 68.8982 263.909 70.656L263.972 70.669L264.004 70.724C267.498 76.6234 272.772 85.121 277.873 93.3391C289.582 112.204 292.931 117.752 292.563 118.171L292.519 118.205C291.72 118.604 291.119 118.911 290.609 119.172C288.9 120.047 288.193 120.409 284.392 121.971L284.298 122.01L284.23 121.935C272.349 108.941 262.462 94.4259 256.347 81.0078C255.632 85.5887 254.765 91.5704 253.848 97.8906C251.213 116.065 249.432 128.032 248.715 128.761L248.672 128.805Z" fill="#2F2E41"/>
<path d="M267.125 18.553C268.322 13.622 269.335 8.06043 267.079 3.51895C265.513 0.367851 259.721 -0.693301 256.401 0.441916C253.081 1.57713 250.68 4.65706 249.624 8.01515C248.568 11.3732 248.691 14.9918 249.151 18.4828C255.258 18.3657 261.364 18.2486 267.125 18.553Z" fill="#2F2E41"/>
<path d="M256.82 18.5517C260.753 18.5517 263.941 15.3697 263.941 11.4445C263.941 7.51928 260.753 4.33728 256.82 4.33728C252.888 4.33728 249.7 7.51928 249.7 11.4445C249.7 15.3697 252.888 18.5517 256.82 18.5517Z" fill="#FFB8B8"/>
<path d="M265.525 9.98041C265.548 8.78425 265.329 7.59574 264.883 6.48552C264.436 5.3753 263.77 4.36601 262.925 3.51764C262.08 2.66926 261.073 1.99911 259.963 1.54699C258.853 1.09487 257.664 0.870015 256.465 0.885785C255.267 0.901556 254.083 1.15763 252.986 1.63879C251.889 2.11995 250.899 2.81638 250.077 3.6867C249.254 4.55702 248.615 5.58346 248.198 6.70505C247.781 7.82663 247.594 9.02048 247.648 10.2156C253.743 10.2285 259.838 10.2415 265.525 9.98041Z" fill="#2F2E41"/>
<path d="M251.873 77.9763C258.957 77.9448 265.995 79.1208 272.682 81.4537C272.915 70.2505 269.051 59.0266 262.064 50.63L262.012 50.5673L262.038 50.4903C263.905 45.108 265.834 39.5447 267.557 34.009L267.531 33.916C266.322 29.6265 263.727 25.2919 259.599 20.6642C259.151 20.2011 258.543 19.9253 257.899 19.8928C257.255 19.8602 256.623 20.0733 256.13 20.4889C248.791 27.2037 244.801 37.2646 245.717 46.7457L245.719 46.7735L245.711 46.8005C242.478 57.7325 241.305 63.3475 240.269 68.3015C239.514 71.9154 238.86 75.0446 237.547 79.5157C242.253 78.4936 247.056 77.9775 251.873 77.9763Z" fill="#3F3D56"/>
<path opacity="0.1" d="M262.303 43.4185L251.786 66.2719L245.778 60.2018L262.303 43.4185Z" fill="black"/>
<path d="M238.696 56.1122L239.43 57.5343C239.436 57.5475 239.438 57.5628 239.433 57.5768C239.429 57.5909 239.419 57.6026 239.406 57.6094L239.37 57.6276L243.19 65.0359C243.296 65.2409 243.316 65.4794 243.245 65.699C243.175 65.9185 243.02 66.1011 242.814 66.2067L238.176 68.589C238.075 68.6412 237.964 68.673 237.85 68.6824C237.736 68.6918 237.621 68.6787 237.512 68.6438C237.403 68.609 237.302 68.5531 237.215 68.4793C237.128 68.4055 237.056 68.3153 237.004 68.2138L233.318 61.0653L233.292 61.0785C233.283 61.0832 233.272 61.0842 233.262 61.081C233.252 61.0779 233.244 61.0709 233.239 61.0617L232.822 60.2523C232.819 60.2477 232.818 60.2427 232.817 60.2375C232.817 60.2323 232.818 60.2271 232.819 60.2222C232.821 60.2173 232.823 60.2127 232.827 60.2087C232.83 60.2048 232.834 60.2015 232.839 60.1992L232.864 60.186L232.707 59.8812L232.681 59.8944C232.671 59.8994 232.66 59.9003 232.65 59.8969C232.639 59.8936 232.631 59.8862 232.626 59.8764L232.214 59.0781C232.209 59.0684 232.208 59.0571 232.211 59.0468C232.215 59.0364 232.222 59.0277 232.232 59.0227L232.258 59.0094L232.043 58.5933L232.017 58.6068C232.008 58.6112 231.998 58.6121 231.989 58.6091C231.98 58.6062 231.972 58.5997 231.967 58.5911L231.743 58.1554C231.738 58.1467 231.737 58.1367 231.74 58.1274C231.743 58.1182 231.75 58.1104 231.758 58.106L231.785 58.0925L231.33 57.2104C231.224 57.0054 231.204 56.767 231.275 56.5475C231.345 56.3279 231.5 56.1454 231.706 56.0399L236.343 53.6575C236.549 53.552 236.788 53.5323 237.008 53.6026C237.228 53.6729 237.411 53.8275 237.516 54.0325L238.586 56.1063L238.621 56.0882C238.634 56.0814 238.65 56.0802 238.664 56.0847C238.678 56.0892 238.69 56.0991 238.696 56.1122Z" fill="#3F3D56"/>
<path d="M237.224 54.3758L242.852 65.2904C242.919 65.4204 242.932 65.5717 242.887 65.711C242.842 65.8502 242.744 65.9661 242.614 66.033L238.174 68.3135C238.044 68.3805 237.893 68.3933 237.753 68.349C237.614 68.3047 237.498 68.2069 237.431 68.0772L237.43 68.0757L231.802 57.1611C231.769 57.0967 231.749 57.0264 231.743 56.9542C231.737 56.882 231.745 56.8093 231.767 56.7404C231.789 56.6714 231.825 56.6075 231.872 56.5522C231.919 56.4969 231.976 56.4514 232.04 56.4183L232.705 56.0769L232.749 56.162C232.776 56.215 232.814 56.2622 232.859 56.3007C232.905 56.3393 232.958 56.3685 233.015 56.3867C233.071 56.4049 233.131 56.4117 233.191 56.4068C233.25 56.4019 233.308 56.3853 233.362 56.358L235.619 55.1982C235.727 55.1431 235.808 55.0477 235.845 54.933C235.881 54.8183 235.871 54.6937 235.816 54.5866L235.772 54.5015L236.48 54.1377C236.61 54.0708 236.762 54.0582 236.901 54.1028C237.041 54.1474 237.157 54.2454 237.224 54.3754L237.224 54.3758Z" fill="#421B73"/>
<path d="M238.856 67.7101C239.281 67.6806 239.694 67.5584 240.067 67.3521C240.44 67.1458 240.763 66.8604 241.013 66.5161C241.263 66.1718 241.435 65.7769 241.516 65.3592C241.597 64.9415 241.585 64.5113 241.481 64.0987L250.147 58.4317L245.205 56.3007L237.733 62.0088C237.05 62.2288 236.472 62.6912 236.108 63.3083C235.743 63.9254 235.619 64.6544 235.757 65.3572C235.896 66.06 236.287 66.6877 236.859 67.1213C237.43 67.555 238.14 67.7645 238.856 67.7101Z" fill="#FFB8B8"/>
<path d="M247.194 63.6276L247.085 63.5504C245.022 62.0353 242.732 60.4685 240.518 58.9533L240.385 58.8623L240.49 58.74C245.216 53.2211 249.947 47.4564 254.523 41.8799C254.52 41.871 254.517 41.8645 254.515 41.8598L254.558 41.8379L254.576 41.8157L254.586 41.8238L254.613 41.8098L254.489 41.8194L253.078 30.7793C251.804 29.0446 251.56 25.6006 253.23 23.1965C254.959 20.7061 258.618 19.8726 261.06 21.4121C261.699 21.8408 262.234 22.4075 262.625 23.0704C263.015 23.7332 263.251 24.4753 263.316 25.2416C263.406 25.9243 263.343 26.6186 263.131 27.2738C262.918 27.929 262.562 28.5285 262.087 29.0287C262.687 34.8713 262.71 40.0936 262.732 45.1452L262.732 45.1956L262.701 45.2371C257.823 51.4232 252.464 57.5764 247.281 63.527L247.194 63.6276Z" fill="#3F3D56"/>
<path d="M102.854 33.4886C111.697 33.4886 118.865 26.3339 118.865 17.5082C118.865 8.68249 111.697 1.52783 102.854 1.52783C94.012 1.52783 86.8438 8.68249 86.8438 17.5082C86.8438 26.3339 94.012 33.4886 102.854 33.4886Z" fill="#421B73"/>
<path d="M101.329 24.2537L96.5366 18.1039L99.3233 15.9405L101.592 18.8524L109.258 10.776L111.821 13.1999L101.329 24.2537Z" fill="white"/>
<path d="M310.661 135.507H229.744C229.655 135.507 229.568 135.472 229.505 135.408C229.441 135.345 229.406 135.259 229.406 135.169C229.406 135.08 229.441 134.994 229.505 134.93C229.568 134.867 229.655 134.831 229.744 134.831H310.661C310.751 134.831 310.837 134.867 310.901 134.93C310.964 134.994 311 135.08 311 135.169C311 135.259 310.964 135.345 310.901 135.408C310.837 135.472 310.751 135.507 310.661 135.507Z" fill="#3F3D56"/>
</g>
<defs>
<clipPath id="clip0_58_363">
<rect width="311" height="146" fill="white"/>
</clipPath>
</defs>
</svg>
