<svg width="24" height="24" viewBox="0 0 24 24" fill="none" xmlns="http://www.w3.org/2000/svg">
<path d="M2.50179 21.1154C2.50251 21.1667 2.51331 21.2172 2.53357 21.2643C2.55384 21.3113 2.58317 21.3539 2.6199 21.3896C2.65662 21.4253 2.70002 21.4534 2.74762 21.4724C2.79522 21.4913 2.84607 21.5007 2.89729 21.4999H21.1008C21.152 21.5007 21.203 21.4914 21.2506 21.4725C21.2983 21.4536 21.3417 21.4255 21.3785 21.3898C21.4153 21.3541 21.4447 21.3115 21.465 21.2644C21.4853 21.2173 21.4961 21.1667 21.4968 21.1154V20.6564C21.5058 20.5179 21.5243 19.8279 21.0693 19.0644C20.7823 18.5829 20.3658 18.1674 19.8313 17.8284C19.1848 17.4184 18.3623 17.1219 17.3673 16.9434C16.8622 16.8726 16.3611 16.7751 15.8663 16.6514C14.5503 16.3154 14.4353 16.0179 14.4343 16.0149C14.4265 15.9856 14.4155 15.9573 14.4013 15.9304C14.3903 15.8754 14.3638 15.6664 14.4148 15.1069C14.5438 13.6854 15.3063 12.8454 15.9188 12.1704C16.1118 11.9579 16.2943 11.7564 16.4348 11.5594C17.0413 10.7094 17.0973 9.74195 17.0998 9.68195C17.1021 9.57563 17.0874 9.46963 17.0563 9.36795C16.9963 9.18295 16.8848 9.06794 16.8028 8.98294C16.7834 8.96347 16.7646 8.94346 16.7463 8.92295C16.7403 8.91595 16.7243 8.89695 16.7388 8.80145C16.7878 8.4938 16.8217 8.18392 16.8403 7.87295C16.8683 7.37195 16.8898 6.62295 16.7603 5.89345C16.7413 5.7541 16.7126 5.61626 16.6743 5.48095C16.5383 4.97861 16.3183 4.55028 16.0143 4.19595C15.9618 4.13845 14.6878 2.79595 10.9893 2.52095C10.4778 2.48295 9.97229 2.50345 9.47429 2.52895C9.32702 2.53225 9.18045 2.55034 9.03679 2.58295C8.65479 2.68145 8.55279 2.92345 8.52629 3.05895C8.48179 3.28395 8.55979 3.45795 8.61129 3.57395C8.61879 3.59045 8.62829 3.61095 8.61179 3.66495C8.52629 3.79795 8.39079 3.91795 8.25329 4.03145C8.21329 4.06495 7.28629 4.86495 7.23529 5.90945C7.09779 6.70395 7.10779 7.94145 7.27029 8.79695C7.28029 8.84445 7.29379 8.91445 7.27129 8.96195C7.09629 9.11845 6.89829 9.29595 6.89879 9.70095C6.90079 9.74195 6.95729 10.7089 7.56379 11.5594C7.70379 11.7564 7.88629 11.9574 8.07879 12.1699L8.07979 12.1704C8.69229 12.8454 9.45479 13.6854 9.58379 15.1064C9.63429 15.6664 9.60779 15.8749 9.59729 15.9304C9.58295 15.9572 9.57171 15.9856 9.56379 16.0149C9.56329 16.0179 9.44879 16.3144 8.13879 16.6499C7.38279 16.8434 6.63879 16.9424 6.61629 16.9449C5.64929 17.1084 4.83179 17.3979 4.18629 17.8054C3.65379 18.1419 3.23629 18.5589 2.94629 19.0439C2.48229 19.8189 2.49479 20.5249 2.50129 20.6539L2.50179 21.1154Z" stroke="currentColor" stroke-linejoin="round"/>
</svg>
