<svg width="35" height="35" viewBox="0 0 35 35" fill="currentColor" xmlns="http://www.w3.org/2000/svg">
<path d="M33.9062 28.4375H31.7188V13.125C32.0088 13.125 32.287 13.0098 32.4921 12.8046C32.6973 12.5995 32.8125 12.3213 32.8125 12.0312C32.8125 11.7412 32.6973 11.463 32.4921 11.2579C32.287 11.0527 32.0088 10.9375 31.7188 10.9375H25.1562V6.5625C25.4463 6.5625 25.7245 6.44727 25.9296 6.24215C26.1348 6.03703 26.25 5.75883 26.25 5.46875C26.25 5.17867 26.1348 4.90047 25.9296 4.69535C25.7245 4.49023 25.4463 4.375 25.1562 4.375H5.46875C5.17867 4.375 4.90047 4.49023 4.69535 4.69535C4.49023 4.90047 4.375 5.17867 4.375 5.46875C4.375 5.75883 4.49023 6.03703 4.69535 6.24215C4.90047 6.44727 5.17867 6.5625 5.46875 6.5625V28.4375H3.28125C2.99117 28.4375 2.71297 28.5527 2.50785 28.7579C2.30273 28.963 2.1875 29.2412 2.1875 29.5312C2.1875 29.8213 2.30273 30.0995 2.50785 30.3046C2.71297 30.5098 2.99117 30.625 3.28125 30.625H33.9062C34.1963 30.625 34.4745 30.5098 34.6796 30.3046C34.8848 30.0995 35 29.8213 35 29.5312C35 29.2412 34.8848 28.963 34.6796 28.7579C34.4745 28.5527 34.1963 28.4375 33.9062 28.4375ZM29.5312 13.125V28.4375H25.1562V13.125H29.5312ZM7.65625 6.5625H22.9688V28.4375H19.6875V21.875C19.6875 21.5849 19.5723 21.3067 19.3671 21.1016C19.162 20.8965 18.8838 20.7812 18.5938 20.7812H12.0312C11.7412 20.7812 11.463 20.8965 11.2579 21.1016C11.0527 21.3067 10.9375 21.5849 10.9375 21.875V28.4375H7.65625V6.5625ZM17.5 28.4375H13.125V22.9688H17.5V28.4375ZM9.84375 10.9375C9.84375 10.6474 9.95898 10.3692 10.1641 10.1641C10.3692 9.95898 10.6474 9.84375 10.9375 9.84375H13.125C13.4151 9.84375 13.6933 9.95898 13.8984 10.1641C14.1035 10.3692 14.2188 10.6474 14.2188 10.9375C14.2188 11.2276 14.1035 11.5058 13.8984 11.7109C13.6933 11.916 13.4151 12.0312 13.125 12.0312H10.9375C10.6474 12.0312 10.3692 11.916 10.1641 11.7109C9.95898 11.5058 9.84375 11.2276 9.84375 10.9375ZM16.4062 10.9375C16.4062 10.6474 16.5215 10.3692 16.7266 10.1641C16.9317 9.95898 17.2099 9.84375 17.5 9.84375H19.6875C19.9776 9.84375 20.2558 9.95898 20.4609 10.1641C20.666 10.3692 20.7812 10.6474 20.7812 10.9375C20.7812 11.2276 20.666 11.5058 20.4609 11.7109C20.2558 11.916 19.9776 12.0312 19.6875 12.0312H17.5C17.2099 12.0312 16.9317 11.916 16.7266 11.7109C16.5215 11.5058 16.4062 11.2276 16.4062 10.9375ZM9.84375 16.4062C9.84375 16.1162 9.95898 15.838 10.1641 15.6329C10.3692 15.4277 10.6474 15.3125 10.9375 15.3125H13.125C13.4151 15.3125 13.6933 15.4277 13.8984 15.6329C14.1035 15.838 14.2188 16.1162 14.2188 16.4062C14.2188 16.6963 14.1035 16.9745 13.8984 17.1796C13.6933 17.3848 13.4151 17.5 13.125 17.5H10.9375C10.6474 17.5 10.3692 17.3848 10.1641 17.1796C9.95898 16.9745 9.84375 16.6963 9.84375 16.4062ZM16.4062 16.4062C16.4062 16.1162 16.5215 15.838 16.7266 15.6329C16.9317 15.4277 17.2099 15.3125 17.5 15.3125H19.6875C19.9776 15.3125 20.2558 15.4277 20.4609 15.6329C20.666 15.838 20.7812 16.1162 20.7812 16.4062C20.7812 16.6963 20.666 16.9745 20.4609 17.1796C20.2558 17.3848 19.9776 17.5 19.6875 17.5H17.5C17.2099 17.5 16.9317 17.3848 16.7266 17.1796C16.5215 16.9745 16.4062 16.6963 16.4062 16.4062Z" fill="currentColor"/>
</svg>
