<svg width="35" height="35" viewBox="0 0 35 35" fill="currentColor" xmlns="http://www.w3.org/2000/svg">
<path d="M23.0353 27.2768C23.3435 27.585 23.5166 28.003 23.5166 28.4389C23.5166 28.8748 23.3435 29.2928 23.0353 29.601C22.7271 29.9092 22.309 30.0824 21.8732 30.0824C21.4373 30.0824 21.0193 29.9092 20.7111 29.601L9.77356 18.6635C9.62061 18.5111 9.49925 18.33 9.41645 18.1305C9.33364 17.9311 9.29102 17.7173 9.29102 17.5014C9.29102 17.2855 9.33364 17.0716 9.41645 16.8722C9.49925 16.6728 9.62061 16.4917 9.77356 16.3393L20.7111 5.40177C21.0193 5.09356 21.4373 4.92041 21.8732 4.92041C22.309 4.92041 22.7271 5.09356 23.0353 5.40177C23.3435 5.70998 23.5166 6.12801 23.5166 6.56388C23.5166 6.99976 23.3435 7.41778 23.0353 7.72599L13.2613 17.5L23.0353 27.2768Z" fill="currentColor"/>
</svg>
